<svg xmlns="http://www.w3.org/2000/svg" width="96" height="96" fill="none" viewBox="0 0 96 96">
    <circle cx="47" cy="45" r="45" fill="#F0F0F1"/>
    <mask id="q0f037zk9a" width="90" height="90" x="2" y="0" maskUnits="userSpaceOnUse">
        <circle cx="47" cy="45" r="45" fill="#F0F0F1"/>
    </mask>
    <g fill="#DFDFE0" mask="url(#q0f037zk9a)">
        <circle cx="47" cy="35.181" r="13.909"/>
        <circle cx="47" cy="85.909" r="30.273"/>
    </g>
    <circle cx="76.5" cy="79.5" r="16.5" fill="#C4C4C4"/>
    <path fill="#F8F8F9" fill-rule="evenodd" d="M84.333 75.75H81.5l-.675-2.363c-.047-.113-.132-.211-.245-.28-.112-.07-.247-.107-.384-.107h-6.392c-.281 0-.533.155-.627.387L72.5 75.75h-2.833c-.921 0-1.667.654-1.667 1.462v8.328c0 .807.746 1.461 1.667 1.461h14.666c.921 0 1.667-.654 1.667-1.461V77.21c0-.807-.746-1.46-1.667-1.46zm-3.476 5.235c0 2.098-1.727 3.799-3.857 3.799s-3.857-1.701-3.857-3.8c0-2.097 1.727-3.798 3.857-3.798s3.857 1.7 3.857 3.799zm-9.643-2.533c.355 0 .643-.283.643-.633 0-.35-.288-.633-.643-.633-.355 0-.643.283-.643.633 0 .35.288.633.643.633z" clip-rule="evenodd"/>
</svg>
